<svg width="70" height="70" viewBox="0 0 70 70" fill="none" xmlns="http://www.w3.org/2000/svg">
<path d="M35.2105 44.0132C40.0721 44.0132 44.0131 40.0721 44.0131 35.2105C44.0131 30.349 40.0721 26.4079 35.2105 26.4079C30.349 26.4079 26.4079 30.349 26.4079 35.2105C26.4079 40.0721 30.349 44.0132 35.2105 44.0132Z" stroke="white" stroke-width="5" stroke-linecap="round" stroke-linejoin="round"/>
<path d="M56.9237 44.0132C56.5331 44.8982 56.4166 45.8799 56.5892 46.8317C56.7617 47.7836 57.2155 48.6619 57.892 49.3534L58.068 49.5295C58.6136 50.0745 59.0465 50.7217 59.3418 51.4341C59.6371 52.1465 59.7891 52.9102 59.7891 53.6814C59.7891 54.4526 59.6371 55.2162 59.3418 55.9286C59.0465 56.641 58.6136 57.2883 58.068 57.8333C57.523 58.3789 56.8758 58.8118 56.1634 59.1071C55.4509 59.4024 54.6873 59.5544 53.9161 59.5544C53.1449 59.5544 52.3813 59.4024 51.6689 59.1071C50.9564 58.8118 50.3092 58.3789 49.7642 57.8333L49.5881 57.6572C48.8966 56.9808 48.0183 56.527 47.0665 56.3544C46.1146 56.1818 45.1329 56.2984 44.2479 56.6889C43.38 57.0609 42.6399 57.6785 42.1186 58.4657C41.5972 59.2529 41.3174 60.1754 41.3137 61.1196V61.6184C41.3137 63.1748 40.6954 64.6675 39.5949 65.768C38.4943 66.8686 37.0017 67.4868 35.4453 67.4868C33.8889 67.4868 32.3962 66.8686 31.2957 65.768C30.1951 64.6675 29.5768 63.1748 29.5768 61.6184V61.3543C29.5541 60.3831 29.2397 59.4412 28.6746 58.6511C28.1094 57.8609 27.3196 57.259 26.4079 56.9237C25.5229 56.5331 24.5412 56.4166 23.5893 56.5892C22.6375 56.7618 21.7592 57.2155 21.0676 57.892L20.8916 58.068C20.3466 58.6136 19.6993 59.0465 18.9869 59.3418C18.2745 59.6371 17.5109 59.7892 16.7397 59.7892C15.9685 59.7892 15.2048 59.6371 14.4924 59.3418C13.78 59.0465 13.1328 58.6136 12.5878 58.068C12.0421 57.523 11.6093 56.8758 11.314 56.1634C11.0186 55.451 10.8666 54.6873 10.8666 53.9161C10.8666 53.1449 11.0186 52.3813 11.314 51.6689C11.6093 50.9564 12.0421 50.3092 12.5878 49.7642L12.7638 49.5882C13.4403 48.8966 13.894 48.0183 14.0666 47.0665C14.2392 46.1146 14.1227 45.1329 13.7321 44.2479C13.3601 43.38 12.7426 42.6399 11.9553 42.1186C11.1681 41.5972 10.2456 41.3174 9.30144 41.3137H8.80262C7.24622 41.3137 5.75357 40.6954 4.65302 39.5949C3.55248 38.4943 2.9342 37.0017 2.9342 35.4453C2.9342 33.8889 3.55248 32.3962 4.65302 31.2957C5.75357 30.1951 7.24622 29.5768 8.80262 29.5768H9.0667C10.0379 29.5541 10.9798 29.2398 11.77 28.6746C12.5602 28.1095 13.162 27.3197 13.4974 26.4079C13.8879 25.5229 14.0045 24.5412 13.8319 23.5893C13.6593 22.6375 13.2055 21.7592 12.5291 21.0676L12.353 20.8916C11.8074 20.3466 11.3745 19.6993 11.0792 18.9869C10.7839 18.2745 10.6319 17.5109 10.6319 16.7397C10.6319 15.9685 10.7839 15.2048 11.0792 14.4924C11.3745 13.78 11.8074 13.1328 12.353 12.5878C12.898 12.0421 13.5453 11.6093 14.2577 11.314C14.9701 11.0186 15.7337 10.8666 16.5049 10.8666C17.2761 10.8666 18.0398 11.0186 18.7522 11.314C19.4646 11.6093 20.1118 12.0421 20.6568 12.5878L20.8329 12.7638C21.5244 13.4403 22.4027 13.894 23.3546 14.0666C24.3064 14.2392 25.2881 14.1227 26.1732 13.7321H26.4079C27.2757 13.3602 28.0159 12.7426 28.5372 11.9553C29.0586 11.1681 29.3383 10.2456 29.3421 9.30145V8.80263C29.3421 7.24623 29.9604 5.75357 31.0609 4.65303C32.1615 3.55249 33.6541 2.93421 35.2105 2.93421C36.7669 2.93421 38.2596 3.55249 39.3601 4.65303C40.4607 5.75357 41.0789 7.24623 41.0789 8.80263V9.06671C41.0827 10.0109 41.3625 10.9334 41.8838 11.7206C42.4052 12.5078 43.1453 13.1254 44.0131 13.4974C44.8982 13.888 45.8799 14.0045 46.8317 13.8319C47.7836 13.6593 48.6619 13.2055 49.3534 12.5291L49.5295 12.353C50.0745 11.8074 50.7217 11.3746 51.4341 11.0792C52.1465 10.7839 52.9102 10.6319 53.6814 10.6319C54.4526 10.6319 55.2162 10.7839 55.9286 11.0792C56.641 11.3746 57.2883 11.8074 57.8333 12.353C58.3789 12.898 58.8118 13.5453 59.1071 14.2577C59.4024 14.9701 59.5544 15.7337 59.5544 16.5049C59.5544 17.2761 59.4024 18.0398 59.1071 18.7522C58.8118 19.4646 58.3789 20.1118 57.8333 20.6568L57.6572 20.8329C56.9808 21.5244 56.527 22.4027 56.3544 23.3546C56.1818 24.3064 56.2983 25.2882 56.6889 26.1732V26.4079C57.0609 27.2757 57.6785 28.0159 58.4657 28.5372C59.2529 29.0586 60.1754 29.3383 61.1196 29.3421H61.6184C63.1748 29.3421 64.6675 29.9604 65.768 31.0609C66.8686 32.1615 67.4868 33.6541 67.4868 35.2105C67.4868 36.7669 66.8686 38.2596 65.768 39.3601C64.6675 40.4607 63.1748 41.0789 61.6184 41.0789H61.3543C60.4101 41.0827 59.4877 41.3625 58.7004 41.8838C57.9132 42.4052 57.2956 43.1453 56.9237 44.0132Z" stroke="white" stroke-width="5" stroke-linecap="round" stroke-linejoin="round"/>
</svg>
