<svg width="70" height="50" viewBox="0 0 70 50" fill="none" xmlns="http://www.w3.org/2000/svg">
<path d="M5 0H30C31.3261 0 32.5979 0.526785 33.5355 1.46447C34.4732 2.40215 35 3.67392 35 5C35 6.32608 34.4732 7.59785 33.5355 8.53553C32.5979 9.47322 31.3261 10 30 10H5C3.67392 10 2.40215 9.47322 1.46447 8.53553C0.526785 7.59785 0 6.32608 0 5C0 3.67392 0.526785 2.40215 1.46447 1.46447C2.40215 0.526785 3.67392 0 5 0ZM40 40H65C66.3261 40 67.5979 40.5268 68.5355 41.4645C69.4732 42.4022 70 43.6739 70 45C70 46.3261 69.4732 47.5979 68.5355 48.5355C67.5979 49.4732 66.3261 50 65 50H40C38.6739 50 37.4021 49.4732 36.4645 48.5355C35.5268 47.5979 35 46.3261 35 45C35 43.6739 35.5268 42.4022 36.4645 41.4645C37.4021 40.5268 38.6739 40 40 40ZM5 20H65C66.3261 20 67.5979 20.5268 68.5355 21.4645C69.4732 22.4022 70 23.6739 70 25C70 26.3261 69.4732 27.5979 68.5355 28.5355C67.5979 29.4732 66.3261 30 65 30H5C3.67392 30 2.40215 29.4732 1.46447 28.5355C0.526785 27.5979 0 26.3261 0 25C0 23.6739 0.526785 22.4022 1.46447 21.4645C2.40215 20.5268 3.67392 20 5 20Z" fill="white"/>
</svg>
