<svg width="75" height="51" viewBox="0 0 75 51" fill="none" xmlns="http://www.w3.org/2000/svg">
<path d="M47.7498 12.641C45.6659 11.8506 43.5102 11.2757 41.2825 10.9164C39.0549 10.5571 36.6836 10.5571 34.1686 10.9164C30.6475 11.3476 27.4139 12.3895 24.4677 14.0423C21.5215 15.695 18.9706 17.7789 16.8148 20.2939C14.6591 22.809 13.0063 25.6833 11.8566 28.9169C10.7069 32.1505 10.0961 35.5279 10.0242 39.0489V40.6657C10.0242 41.3843 9.77272 41.9592 9.26971 42.3903C8.7667 42.8215 8.15591 43.073 7.43733 43.1449H2.47911C1.76053 43.1449 1.18566 42.8933 0.754511 42.3903C0.323362 41.8873 0.0718582 41.3125 0 40.6657V39.1567C0 34.4141 0.82637 29.8511 2.47911 25.4677C4.13185 21.0844 6.39538 17.204 9.26971 13.8267C12.144 10.4494 15.5932 7.61096 19.6173 5.3115C23.6414 3.01204 27.9888 1.57487 32.6596 1.00001C36.8273 0.42514 40.8514 0.532927 44.7317 1.32337C48.6121 2.11381 52.205 3.44319 55.5105 5.3115C55.8698 5.59893 56.0853 5.95822 56.1572 6.38937C56.2291 6.82052 56.0494 7.17981 55.6183 7.46725C54.6122 8.25769 53.4266 9.15592 52.0613 10.1619C50.696 11.1679 49.654 11.9584 48.9354 12.5333C48.5043 12.8207 48.1091 12.8566 47.7498 12.641ZM71.2474 22.2341C73.6906 27.2642 74.9122 32.5817 74.9122 38.1866V40.6657C74.9122 41.3843 74.6607 41.9592 74.1577 42.3903C73.6547 42.8215 73.0439 43.073 72.3253 43.1449H67.4749C66.7563 43.1449 66.1455 42.8933 65.6425 42.3903C65.1395 41.8873 64.888 41.3125 64.888 40.6657V38.1866C64.888 35.5279 64.4928 32.8332 63.7023 30.1026C63.5586 29.5996 63.6305 29.2044 63.9179 28.9169L69.1995 22.0185C69.4869 21.6592 69.8821 21.4796 70.3851 21.4796C70.8881 21.4796 71.1756 21.7311 71.2474 22.2341ZM61.8699 15.3357C62.4448 14.9046 63.0197 14.7249 63.5945 14.7968C64.1694 14.8686 64.6724 15.0842 65.1035 15.4435C65.5347 15.8028 65.7862 16.3058 65.8581 16.9525C65.9299 17.5993 65.7503 18.2101 65.3191 18.7849L43.4383 47.6719L43.1149 47.9953L42.7916 48.4264C41.2825 49.8636 39.4861 50.5822 37.4022 50.5822C35.3183 50.5822 33.5578 49.8636 32.1206 48.4264C30.6835 46.9893 29.9649 45.2287 29.9649 43.1449C29.9649 41.061 30.6835 39.3004 32.1206 37.8633C32.2643 37.7196 32.4081 37.6118 32.5518 37.5399C32.6955 37.4681 32.8392 37.3603 32.9829 37.2165L61.8699 15.3357Z" fill="white"/>
</svg>
