<svg width="65" height="65" viewBox="0 0 65 65" fill="none" xmlns="http://www.w3.org/2000/svg">
<path d="M55.226 6.49718H48.7289V3.24859C48.7289 2.38701 48.3866 1.56072 47.7774 0.95149C47.1681 0.342261 46.3418 0 45.4803 0C44.6187 0 43.7924 0.342261 43.1832 0.95149C42.5739 1.56072 42.2317 2.38701 42.2317 3.24859V6.49718H22.7401V3.24859C22.7401 2.38701 22.3979 1.56072 21.7886 0.95149C21.1794 0.342261 20.3531 0 19.4915 0C18.63 0 17.8037 0.342261 17.1944 0.95149C16.5852 1.56072 16.243 2.38701 16.243 3.24859V6.49718H9.74577C7.16103 6.49718 4.68216 7.52396 2.85447 9.35165C1.02678 11.1793 0 13.6582 0 16.243V55.226C0 57.8108 1.02678 60.2897 2.85447 62.1173C4.68216 63.945 7.16103 64.9718 9.74577 64.9718H55.226C57.8108 64.9718 60.2897 63.945 62.1173 62.1173C63.945 60.2897 64.9718 57.8108 64.9718 55.226V16.243C64.9718 13.6582 63.945 11.1793 62.1173 9.35165C60.2897 7.52396 57.8108 6.49718 55.226 6.49718ZM58.4746 55.226C58.4746 56.0876 58.1324 56.9139 57.5231 57.5231C56.9139 58.1324 56.0876 58.4746 55.226 58.4746H9.74577C8.88419 58.4746 8.0579 58.1324 7.44867 57.5231C6.83944 56.9139 6.49718 56.0876 6.49718 55.226V32.4859H58.4746V55.226ZM58.4746 25.9887H6.49718V16.243C6.49718 15.3814 6.83944 14.5551 7.44867 13.9459C8.0579 13.3366 8.88419 12.9944 9.74577 12.9944H16.243V16.243C16.243 17.1045 16.5852 17.9308 17.1944 18.5401C17.8037 19.1493 18.63 19.4915 19.4915 19.4915C20.3531 19.4915 21.1794 19.1493 21.7886 18.5401C22.3979 17.9308 22.7401 17.1045 22.7401 16.243V12.9944H42.2317V16.243C42.2317 17.1045 42.5739 17.9308 43.1832 18.5401C43.7924 19.1493 44.6187 19.4915 45.4803 19.4915C46.3418 19.4915 47.1681 19.1493 47.7774 18.5401C48.3866 17.9308 48.7289 17.1045 48.7289 16.243V12.9944H55.226C56.0876 12.9944 56.9139 13.3366 57.5231 13.9459C58.1324 14.5551 58.4746 15.3814 58.4746 16.243V25.9887Z" fill="white"/>
</svg>
