<svg width="49" height="58" viewBox="0 0 49 58" fill="none" xmlns="http://www.w3.org/2000/svg">
<path d="M48.9214 7.64039H48.9168C48.9067 7.31908 48.7733 7.01398 48.5444 6.7883C48.3154 6.56263 48.0084 6.43367 47.687 6.42815V6.42586H45.1237L45.1229 52.5078L45.1237 52.5154C45.1237 53.202 44.5737 53.7566 43.8901 53.7696V53.7734L5.05418 53.7719C4.75749 53.7714 4.4706 53.6657 4.24446 53.4736C4.01833 53.2816 3.8676 53.0156 3.81905 52.7229V49.9749H39.9841V49.9727C39.9925 49.9727 40.0001 49.9749 40.0077 49.9749C40.702 49.9749 41.2635 49.4142 41.2635 48.7192L41.2619 48.7101L41.2635 1.25649C41.2635 0.562254 40.702 3.08442e-07 40.0077 0.000763203L39.9848 0.00305136V0H35.5936V26.6647C35.5941 26.7853 35.5581 26.9031 35.4903 27.0028C35.4224 27.1025 35.326 27.1793 35.2137 27.2231C35.1013 27.2668 34.9784 27.2756 34.861 27.2481C34.7436 27.2206 34.6373 27.1581 34.5561 27.069L30.2328 22.7457H30.2183C30.1702 22.6886 30.1103 22.6426 30.0427 22.6108C29.9752 22.5791 29.9015 22.5624 29.8269 22.5618C29.7523 22.5624 29.6786 22.5791 29.611 22.6108C29.5435 22.6426 29.4836 22.6886 29.4355 22.7457H29.421L25.0657 27.1011H25.0588C24.9742 27.1817 24.8677 27.2356 24.7526 27.2561C24.6376 27.2766 24.519 27.2627 24.4118 27.2163C24.3046 27.1698 24.2134 27.0928 24.1496 26.9948C24.0859 26.8969 24.0524 26.7823 24.0533 26.6655V0.000763203H1.25572C0.56149 0.000763203 0 0.562254 0 1.25649C0 1.27251 0.00457776 1.28853 0.00457776 1.30455V56.2665C0.00381487 56.2818 0 56.2963 0 56.3116C0 56.3268 0.00381487 56.3413 0.00457776 56.3566V56.4145H0.0106805C0.0354106 56.728 0.177239 57.0206 0.407945 57.2342C0.638651 57.4478 0.94132 57.5667 1.25572 57.5673L47.687 57.5696V57.5673C48.016 57.5621 48.3298 57.4277 48.5605 57.1932C48.7913 56.9587 48.9207 56.6429 48.9206 56.3138L48.9199 56.3062L48.9214 7.64039Z" fill="white"/>
</svg>
